<svg width="19" height="19" viewBox="0 0 19 19" fill="none" xmlns="http://www.w3.org/2000/svg">
<g clip-path="url(#clip0_1232_332)">
<path d="M6.53125 0C6.68872 0 6.83974 0.0625556 6.95109 0.173905C7.06244 0.285255 7.125 0.436278 7.125 0.59375V5.34375C7.125 5.81617 6.93733 6.26924 6.60328 6.60328C6.26924 6.93733 5.81617 7.125 5.34375 7.125H0.59375C0.436278 7.125 0.285255 7.06244 0.173905 6.95109C0.0625556 6.83974 0 6.68872 0 6.53125C0 6.37378 0.0625556 6.22276 0.173905 6.11141C0.285255 6.00006 0.436278 5.9375 0.59375 5.9375H5.34375C5.50122 5.9375 5.65224 5.87494 5.76359 5.76359C5.87494 5.65224 5.9375 5.50122 5.9375 5.34375V0.59375C5.9375 0.436278 6.00006 0.285255 6.11141 0.173905C6.22276 0.0625556 6.37378 0 6.53125 0ZM12.4688 0C12.6262 0 12.7772 0.0625556 12.8886 0.173905C12.9999 0.285255 13.0625 0.436278 13.0625 0.59375V5.34375C13.0625 5.50122 13.1251 5.65224 13.2364 5.76359C13.3478 5.87494 13.4988 5.9375 13.6562 5.9375H18.4062C18.5637 5.9375 18.7147 6.00006 18.8261 6.11141C18.9374 6.22276 19 6.37378 19 6.53125C19 6.68872 18.9374 6.83974 18.8261 6.95109C18.7147 7.06244 18.5637 7.125 18.4062 7.125H13.6562C13.1838 7.125 12.7308 6.93733 12.3967 6.60328C12.0627 6.26924 11.875 5.81617 11.875 5.34375V0.59375C11.875 0.436278 11.9376 0.285255 12.0489 0.173905C12.1603 0.0625556 12.3113 0 12.4688 0ZM0 12.4688C0 12.3113 0.0625556 12.1603 0.173905 12.0489C0.285255 11.9376 0.436278 11.875 0.59375 11.875H5.34375C5.81617 11.875 6.26924 12.0627 6.60328 12.3967C6.93733 12.7308 7.125 13.1838 7.125 13.6562V18.4062C7.125 18.5637 7.06244 18.7147 6.95109 18.8261C6.83974 18.9374 6.68872 19 6.53125 19C6.37378 19 6.22276 18.9374 6.11141 18.8261C6.00006 18.7147 5.9375 18.5637 5.9375 18.4062V13.6562C5.9375 13.4988 5.87494 13.3478 5.76359 13.2364C5.65224 13.1251 5.50122 13.0625 5.34375 13.0625H0.59375C0.436278 13.0625 0.285255 12.9999 0.173905 12.8886C0.0625556 12.7772 0 12.6262 0 12.4688ZM11.875 13.6562C11.875 13.1838 12.0627 12.7308 12.3967 12.3967C12.7308 12.0627 13.1838 11.875 13.6562 11.875H18.4062C18.5637 11.875 18.7147 11.9376 18.8261 12.0489C18.9374 12.1603 19 12.3113 19 12.4688C19 12.6262 18.9374 12.7772 18.8261 12.8886C18.7147 12.9999 18.5637 13.0625 18.4062 13.0625H13.6562C13.4988 13.0625 13.3478 13.1251 13.2364 13.2364C13.1251 13.3478 13.0625 13.4988 13.0625 13.6562V18.4062C13.0625 18.5637 12.9999 18.7147 12.8886 18.8261C12.7772 18.9374 12.6262 19 12.4688 19C12.3113 19 12.1603 18.9374 12.0489 18.8261C11.9376 18.7147 11.875 18.5637 11.875 18.4062V13.6562Z" fill="#F0F0F0"/>
</g>
<defs>
<clipPath id="clip0_1232_332">
<rect width="19" height="19" fill="white"/>
</clipPath>
</defs>
</svg>
