<svg width="19" height="18" viewBox="0 0 19 18" fill="none" xmlns="http://www.w3.org/2000/svg">
<path d="M5.72222 1H2.88889C2.38792 1 1.90748 1.1873 1.55324 1.5207C1.19901 1.8541 1 2.30628 1 2.77778V5.44444M18 5.44444V2.77778C18 2.30628 17.801 1.8541 17.4468 1.5207C17.0925 1.1873 16.6121 1 16.1111 1H13.2778M13.2778 17H16.1111C16.6121 17 17.0925 16.8127 17.4468 16.4793C17.801 16.1459 18 15.6937 18 15.2222V12.5556M1 12.5556V15.2222C1 15.6937 1.19901 16.1459 1.55324 16.4793C1.90748 16.8127 2.38792 17 2.88889 17H5.72222" stroke="#F0F0F0" stroke-width="2" stroke-linecap="round" stroke-linejoin="round"/>
</svg>
