<svg width="13" height="18" viewBox="0 0 13 18" fill="none" xmlns="http://www.w3.org/2000/svg">
<path d="M1.875 0C2.18166 0 2.47575 0.105357 2.69259 0.292893C2.90943 0.48043 3.03125 0.734784 3.03125 1V17C3.03125 17.2652 2.90943 17.5196 2.69259 17.7071C2.47575 17.8946 2.18166 18 1.875 18C1.56834 18 1.27425 17.8946 1.05741 17.7071C0.840569 17.5196 0.71875 17.2652 0.71875 17V1C0.71875 0.734784 0.840569 0.48043 1.05741 0.292893C1.27425 0.105357 1.56834 0 1.875 0ZM11.125 0C11.4317 0 11.7258 0.105357 11.9426 0.292893C12.1594 0.48043 12.2812 0.734784 12.2812 1V17C12.2812 17.2652 12.1594 17.5196 11.9426 17.7071C11.7258 17.8946 11.4317 18 11.125 18C10.8183 18 10.5242 17.8946 10.3074 17.7071C10.0906 17.5196 9.96875 17.2652 9.96875 17V1C9.96875 0.734784 10.0906 0.48043 10.3074 0.292893C10.5242 0.105357 10.8183 0 11.125 0Z" fill="#F9F9F9"/>
</svg>
